<svg width="347" height="352" viewBox="0 0 347 352" fill="none" xmlns="http://www.w3.org/2000/svg">
<path fill-rule="evenodd" clip-rule="evenodd" d="M82.1183 47.5863C78.9064 51.9006 71.998 66.5917 68.6718 74.0589L299.68 170.962C302.682 163.343 308.37 148.005 309.156 142.824C314.324 113.437 300.661 87.3388 272.444 72.4678L158.037 24.4765C127.456 14.5319 99.5646 23.0633 82.1183 47.5863ZM27.6275 171.784L68.6279 74.0432L299.725 170.983L258.396 269.508C241.491 309.808 205.729 323.946 165.141 306.92L65.8279 265.26C25.6206 248.394 10.6092 212.355 27.6275 171.784Z" fill="url(#paint0_linear_610_36)"/>
<mask id="path-2-outside-1_610_36" maskUnits="userSpaceOnUse" x="93.6429" y="91.9915" width="253" height="260" fill="black">
<rect fill="white" x="93.6429" y="91.9915" width="253" height="260"/>
<path fill-rule="evenodd" clip-rule="evenodd" d="M96.849 143.669C95.5561 148.89 94.8684 165.11 94.6896 173.283H345.199C345.02 165.096 344.332 148.751 343.053 143.669C336.451 114.571 313.756 95.7899 281.983 92.9915H157.919C125.871 95.6507 103.451 114.307 96.849 143.669ZM94.6429 173.285V279.277C94.6429 323.273 122.427 350.7 166.028 350.7H273.725C317.74 350.7 345.248 323.829 345.248 280.127V173.285H94.6429ZM151.861 233.904C152.136 240.295 157.363 245.321 163.69 245.028C169.879 244.764 174.831 239.473 174.556 233.055C174.418 226.804 169.329 221.917 163.14 221.917C156.813 222.209 151.861 227.5 151.861 233.904ZM208.392 233.904C208.667 240.295 213.894 245.321 220.221 245.028C226.411 244.764 231.362 239.473 231.087 233.055C230.95 226.804 225.86 221.917 219.671 221.917C213.344 222.209 208.392 227.5 208.392 233.904ZM264.923 284.429C264.923 290.833 270.012 296.124 276.339 296.263C282.804 296.263 288.03 290.973 288.03 284.429C288.03 277.899 282.804 272.609 276.339 272.609H276.202C269.875 272.748 264.785 278.025 264.923 284.429ZM220.221 295.567C213.894 295.86 208.667 290.834 208.392 284.429C208.392 278.025 213.344 272.748 219.671 272.456C225.86 272.456 230.95 277.343 231.087 283.608C231.362 290.012 226.411 295.303 220.221 295.567ZM163.552 295.567C157.225 295.86 151.998 290.834 151.723 284.429C151.723 278.025 156.675 272.748 163.002 272.456C169.191 272.456 174.281 277.343 174.418 283.608C174.693 290.012 169.742 295.303 163.552 295.567ZM276.338 222.07C270.011 222.209 265.06 227.361 265.06 233.765V233.904C265.197 240.295 270.424 245.168 276.751 245.028C282.941 244.903 287.892 239.613 287.755 233.208C287.479 227.068 282.528 222.07 276.338 222.07Z"/>
</mask>
<path fill-rule="evenodd" clip-rule="evenodd" d="M96.849 143.669C95.5561 148.89 94.8684 165.11 94.6896 173.283H345.199C345.02 165.096 344.332 148.751 343.053 143.669C336.451 114.571 313.756 95.7899 281.983 92.9915H157.919C125.871 95.6507 103.451 114.307 96.849 143.669ZM94.6429 173.285V279.277C94.6429 323.273 122.427 350.7 166.028 350.7H273.725C317.74 350.7 345.248 323.829 345.248 280.127V173.285H94.6429ZM151.861 233.904C152.136 240.295 157.363 245.321 163.69 245.028C169.879 244.764 174.831 239.473 174.556 233.055C174.418 226.804 169.329 221.917 163.14 221.917C156.813 222.209 151.861 227.5 151.861 233.904ZM208.392 233.904C208.667 240.295 213.894 245.321 220.221 245.028C226.411 244.764 231.362 239.473 231.087 233.055C230.95 226.804 225.86 221.917 219.671 221.917C213.344 222.209 208.392 227.5 208.392 233.904ZM264.923 284.429C264.923 290.833 270.012 296.124 276.339 296.263C282.804 296.263 288.03 290.973 288.03 284.429C288.03 277.899 282.804 272.609 276.339 272.609H276.202C269.875 272.748 264.785 278.025 264.923 284.429ZM220.221 295.567C213.894 295.86 208.667 290.834 208.392 284.429C208.392 278.025 213.344 272.748 219.671 272.456C225.86 272.456 230.95 277.343 231.087 283.608C231.362 290.012 226.411 295.303 220.221 295.567ZM163.552 295.567C157.225 295.86 151.998 290.834 151.723 284.429C151.723 278.025 156.675 272.748 163.002 272.456C169.191 272.456 174.281 277.343 174.418 283.608C174.693 290.012 169.742 295.303 163.552 295.567ZM276.338 222.07C270.011 222.209 265.06 227.361 265.06 233.765V233.904C265.197 240.295 270.424 245.168 276.751 245.028C282.941 244.903 287.892 239.613 287.755 233.208C287.479 227.068 282.528 222.07 276.338 222.07Z" fill="url(#paint1_linear_610_36)"/>
<path d="M94.6896 173.283L93.6898 173.261C93.6839 173.53 93.7866 173.79 93.9748 173.982C94.1629 174.174 94.4206 174.283 94.6896 174.283V173.283ZM96.849 143.669L97.8197 143.91C97.8214 143.903 97.8231 143.896 97.8246 143.889L96.849 143.669ZM345.199 173.283V174.283C345.468 174.283 345.725 174.174 345.914 173.982C346.102 173.79 346.204 173.53 346.199 173.261L345.199 173.283ZM343.053 143.669L342.078 143.891C342.08 143.898 342.081 143.906 342.083 143.914L343.053 143.669ZM281.983 92.9915L282.071 91.9953C282.042 91.9927 282.013 91.9915 281.983 91.9915V92.9915ZM157.919 92.9915V91.9915C157.891 91.9915 157.863 91.9926 157.836 91.9949L157.919 92.9915ZM94.6429 173.285V172.285C94.0907 172.285 93.6429 172.733 93.6429 173.285H94.6429ZM345.248 173.285H346.248C346.248 172.733 345.801 172.285 345.248 172.285V173.285ZM163.69 245.028L163.647 244.029L163.644 244.029L163.69 245.028ZM151.861 233.904H150.861C150.861 233.919 150.861 233.933 150.862 233.947L151.861 233.904ZM174.556 233.055L173.556 233.077C173.556 233.084 173.556 233.091 173.557 233.098L174.556 233.055ZM163.14 221.917V220.917C163.124 220.917 163.109 220.917 163.093 220.918L163.14 221.917ZM220.221 245.028L220.178 244.029L220.175 244.029L220.221 245.028ZM208.392 233.904H207.392C207.392 233.919 207.393 233.933 207.393 233.947L208.392 233.904ZM231.087 233.055L230.087 233.077C230.087 233.084 230.088 233.091 230.088 233.098L231.087 233.055ZM219.671 221.917V220.917C219.655 220.917 219.64 220.917 219.625 220.918L219.671 221.917ZM276.339 296.263L276.317 297.263C276.324 297.263 276.332 297.263 276.339 297.263V296.263ZM264.923 284.429H265.923C265.923 284.422 265.923 284.415 265.923 284.408L264.923 284.429ZM276.202 272.609V271.609C276.194 271.609 276.187 271.609 276.18 271.609L276.202 272.609ZM208.392 284.429H207.392C207.392 284.444 207.393 284.458 207.393 284.472L208.392 284.429ZM220.221 295.567L220.178 294.568L220.175 294.568L220.221 295.567ZM219.671 272.456V271.456C219.655 271.456 219.64 271.456 219.625 271.457L219.671 272.456ZM231.087 283.608L230.087 283.63C230.087 283.637 230.088 283.644 230.088 283.651L231.087 283.608ZM151.723 284.429H150.723C150.723 284.444 150.724 284.458 150.724 284.472L151.723 284.429ZM163.552 295.567L163.509 294.568L163.506 294.568L163.552 295.567ZM163.002 272.456V271.456C162.987 271.456 162.971 271.456 162.956 271.457L163.002 272.456ZM174.418 283.608L173.418 283.63C173.419 283.637 173.419 283.644 173.419 283.651L174.418 283.608ZM276.338 222.07V221.07C276.331 221.07 276.324 221.07 276.316 221.07L276.338 222.07ZM265.06 233.904H264.06C264.06 233.911 264.06 233.919 264.06 233.926L265.06 233.904ZM276.751 245.028L276.731 244.029L276.729 244.029L276.751 245.028ZM287.755 233.208L288.754 233.187C288.754 233.179 288.754 233.171 288.754 233.163L287.755 233.208ZM95.6893 173.305C95.7785 169.229 95.9947 163.144 96.3496 157.431C96.7068 151.681 97.1991 146.416 97.8197 143.91L95.8783 143.429C95.206 146.144 94.708 151.6 94.3534 157.307C93.9965 163.052 93.7794 169.164 93.6898 173.261L95.6893 173.305ZM345.199 172.283H94.6896V174.283H345.199V172.283ZM342.083 143.914C342.696 146.347 343.185 151.605 343.54 157.373C343.894 163.102 344.11 169.222 344.199 173.305L346.199 173.261C346.109 169.157 345.892 163.011 345.537 157.25C345.184 151.529 344.689 146.074 344.023 143.425L342.083 143.914ZM281.896 93.9876C313.278 96.7517 335.581 115.257 342.078 143.891L344.028 143.448C337.321 113.886 314.234 94.8281 282.071 91.9953L281.896 93.9876ZM157.919 93.9915H281.983V91.9915H157.919V93.9915ZM97.8246 143.889C104.323 114.989 126.35 96.6143 158.001 93.988L157.836 91.9949C125.391 94.687 102.58 113.624 95.8734 143.45L97.8246 143.889ZM95.6429 279.277V173.285H93.6429V279.277H95.6429ZM166.028 349.7C144.44 349.7 126.866 342.914 114.691 330.779C102.517 318.644 95.6429 301.061 95.6429 279.277H93.6429C93.6429 301.489 100.661 319.618 113.279 332.195C125.897 344.772 144.015 351.7 166.028 351.7V349.7ZM273.725 349.7H166.028V351.7H273.725V349.7ZM344.248 280.127C344.248 301.765 337.443 319.132 325.291 331.089C313.137 343.048 295.528 349.7 273.725 349.7V351.7C295.937 351.7 314.09 344.916 326.694 332.515C339.299 320.111 346.248 302.192 346.248 280.127H344.248ZM344.248 173.285V280.127H346.248V173.285H344.248ZM94.6429 174.285H345.248V172.285H94.6429V174.285ZM163.644 244.029C157.902 244.295 153.113 239.732 152.86 233.861L150.862 233.947C151.159 240.858 156.824 246.347 163.736 246.027L163.644 244.029ZM173.557 233.098C173.808 238.966 169.283 243.788 163.647 244.029L163.733 246.027C170.476 245.739 175.854 239.981 175.555 233.012L173.557 233.098ZM163.14 222.917C168.792 222.917 173.431 227.376 173.556 233.077L175.556 233.033C175.406 226.231 169.866 220.917 163.14 220.917V222.917ZM152.861 233.904C152.861 228.019 157.408 223.183 163.186 222.916L163.093 220.918C156.218 221.236 150.861 226.981 150.861 233.904H152.861ZM220.175 244.029C214.433 244.295 209.644 239.732 209.391 233.861L207.393 233.947C207.691 240.858 213.355 246.347 220.267 246.027L220.175 244.029ZM230.088 233.098C230.339 238.966 225.814 243.788 220.178 244.029L220.264 246.027C227.007 245.739 232.385 239.981 232.086 233.012L230.088 233.098ZM219.671 222.917C225.324 222.917 229.962 227.376 230.087 233.077L232.087 233.033C231.937 226.231 226.397 220.917 219.671 220.917V222.917ZM209.392 233.904C209.392 228.019 213.939 223.183 219.717 222.916L219.625 220.918C212.749 221.236 207.392 226.981 207.392 233.904H209.392ZM276.361 295.263C270.591 295.136 265.923 290.304 265.923 284.429H263.923C263.923 291.363 269.433 297.111 276.317 297.263L276.361 295.263ZM287.03 284.429C287.03 290.432 282.24 295.263 276.339 295.263V297.263C283.367 297.263 289.03 291.513 289.03 284.429H287.03ZM276.339 273.609C282.241 273.609 287.03 278.441 287.03 284.429H289.03C289.03 277.358 283.367 271.609 276.339 271.609V273.609ZM276.202 273.609H276.339V271.609H276.202V273.609ZM265.923 284.408C265.797 278.555 270.449 273.736 276.224 273.609L276.18 271.609C269.301 271.76 263.774 277.494 263.923 284.451L265.923 284.408ZM207.393 284.472C207.691 291.396 213.354 296.886 220.267 296.566L220.175 294.568C214.434 294.834 209.644 290.271 209.391 284.386L207.393 284.472ZM219.625 271.457C212.75 271.775 207.392 277.504 207.392 284.429H209.392C209.392 278.546 213.937 273.722 219.717 273.455L219.625 271.457ZM232.087 283.586C231.937 276.771 226.398 271.456 219.671 271.456V273.456C225.323 273.456 229.962 277.915 230.087 283.63L232.087 283.586ZM220.264 296.566C227.006 296.278 232.385 290.52 232.086 283.565L230.088 283.651C230.339 289.504 225.815 294.327 220.178 294.568L220.264 296.566ZM150.724 284.472C151.022 291.396 156.685 296.886 163.598 296.566L163.506 294.568C157.765 294.834 152.975 290.271 152.722 284.386L150.724 284.472ZM162.956 271.457C156.082 271.775 150.723 277.504 150.723 284.429H152.723C152.723 278.546 157.268 273.722 163.048 273.455L162.956 271.457ZM175.418 283.586C175.268 276.771 169.729 271.456 163.002 271.456V273.456C168.654 273.456 173.293 277.915 173.418 283.63L175.418 283.586ZM163.595 296.566C170.337 296.278 175.716 290.52 175.417 283.565L173.419 283.651C173.671 289.504 169.146 294.327 163.509 294.568L163.595 296.566ZM266.06 233.765C266.06 227.89 270.591 223.197 276.36 223.07L276.316 221.07C269.432 221.222 264.06 226.831 264.06 233.765H266.06ZM266.06 233.904V233.765H264.06V233.904H266.06ZM276.729 244.029C270.943 244.156 266.185 239.709 266.06 233.883L264.06 233.926C264.21 240.88 269.905 246.179 276.773 246.028L276.729 244.029ZM286.755 233.23C286.881 239.108 282.341 243.915 276.731 244.029L276.771 246.028C283.54 245.891 288.903 240.117 288.754 233.187L286.755 233.23ZM276.338 223.07C281.965 223.07 286.503 227.619 286.756 233.253L288.754 233.163C288.456 226.518 283.091 221.07 276.338 221.07V223.07Z" fill="url(#paint2_linear_610_36)" mask="url(#path-2-outside-1_610_36)"/>
<g filter="url(#filter0_d_610_36)">
<mask id="path-4-inside-2_610_36" fill="white">
<path fill-rule="evenodd" clip-rule="evenodd" d="M179.092 125.432C179.092 131.571 174.553 136.152 168.501 136.152C162.449 136.152 157.91 131.571 157.91 125.432V82.9818C157.91 76.842 162.449 72.2476 168.501 72.2476C174.553 72.2476 179.092 76.842 179.092 82.9818V125.432ZM281.979 125.432C281.979 131.571 277.303 136.152 271.389 136.152C265.337 136.152 260.798 131.571 260.798 125.432V82.9818C260.798 76.842 265.337 72.2476 271.389 72.2476C277.303 72.2476 281.979 76.842 281.979 82.9818V125.432Z"/>
</mask>
<path fill-rule="evenodd" clip-rule="evenodd" d="M179.092 125.432C179.092 131.571 174.553 136.152 168.501 136.152C162.449 136.152 157.91 131.571 157.91 125.432V82.9818C157.91 76.842 162.449 72.2476 168.501 72.2476C174.553 72.2476 179.092 76.842 179.092 82.9818V125.432ZM281.979 125.432C281.979 131.571 277.303 136.152 271.389 136.152C265.337 136.152 260.798 131.571 260.798 125.432V82.9818C260.798 76.842 265.337 72.2476 271.389 72.2476C277.303 72.2476 281.979 76.842 281.979 82.9818V125.432Z" fill="url(#paint3_linear_610_36)"/>
<path d="M168.501 136.552C174.778 136.552 179.492 131.788 179.492 125.432H178.692C178.692 131.355 174.328 135.752 168.501 135.752V136.552ZM157.51 125.432C157.51 131.788 162.224 136.552 168.501 136.552V135.752C162.674 135.752 158.31 131.355 158.31 125.432H157.51ZM157.51 82.9818V125.432H158.31V82.9818H157.51ZM168.501 71.8476C162.223 71.8476 157.51 76.626 157.51 82.9818H158.31C158.31 77.058 162.675 72.6476 168.501 72.6476V71.8476ZM179.492 82.9818C179.492 76.626 174.779 71.8476 168.501 71.8476V72.6476C174.327 72.6476 178.692 77.058 178.692 82.9818H179.492ZM179.492 125.432V82.9818H178.692V125.432H179.492ZM271.389 136.552C277.525 136.552 282.379 131.792 282.379 125.432H281.579C281.579 131.351 277.081 135.752 271.389 135.752V136.552ZM260.398 125.432C260.398 131.788 265.111 136.552 271.389 136.552V135.752C265.562 135.752 261.198 131.355 261.198 125.432H260.398ZM260.398 82.9818V125.432H261.198V82.9818H260.398ZM271.389 71.8476C265.111 71.8476 260.398 76.626 260.398 82.9818H261.198C261.198 77.058 265.562 72.6476 271.389 72.6476V71.8476ZM282.379 82.9818C282.379 76.6226 277.525 71.8476 271.389 71.8476V72.6476C277.08 72.6476 281.579 77.0614 281.579 82.9818H282.379ZM282.379 125.432V82.9818H281.579V125.432H282.379Z" fill="url(#paint4_linear_610_36)" mask="url(#path-4-inside-2_610_36)"/>
</g>
<mask id="path-6-inside-3_610_36" fill="white">
<path fill-rule="evenodd" clip-rule="evenodd" d="M151.988 234.031C152.263 240.421 157.489 245.447 163.816 245.155C170.006 244.89 174.958 239.6 174.682 233.181C174.545 226.93 169.456 222.043 163.266 222.043C156.939 222.336 151.988 227.626 151.988 234.031ZM208.516 234.031C208.791 240.421 214.018 245.447 220.345 245.155C226.534 244.89 231.486 239.6 231.211 233.181C231.073 226.93 225.984 222.043 219.794 222.043C213.467 222.336 208.516 227.626 208.516 234.031ZM265.046 284.555C265.046 290.959 270.136 296.25 276.463 296.389C282.927 296.389 288.154 291.099 288.154 284.555C288.154 278.025 282.927 272.735 276.463 272.735H276.325C269.998 272.874 264.909 278.151 265.046 284.555ZM220.345 295.694C214.018 295.986 208.791 290.96 208.516 284.556C208.516 278.152 213.467 272.875 219.794 272.583C225.984 272.583 231.073 277.469 231.211 283.735C231.486 290.139 226.534 295.43 220.345 295.694ZM163.676 295.694C157.349 295.986 152.122 290.96 151.847 284.556C151.847 278.152 156.799 272.875 163.126 272.583C169.315 272.583 174.404 277.469 174.542 283.735C174.817 290.139 169.865 295.43 163.676 295.694ZM276.462 222.197C270.135 222.336 265.183 227.487 265.183 233.892V234.031C265.321 240.422 270.548 245.294 276.875 245.155C283.064 245.03 288.016 239.739 287.878 233.335C287.603 227.195 282.652 222.197 276.462 222.197Z"/>
</mask>
<path fill-rule="evenodd" clip-rule="evenodd" d="M151.988 234.031C152.263 240.421 157.489 245.447 163.816 245.155C170.006 244.89 174.958 239.6 174.682 233.181C174.545 226.93 169.456 222.043 163.266 222.043C156.939 222.336 151.988 227.626 151.988 234.031ZM208.516 234.031C208.791 240.421 214.018 245.447 220.345 245.155C226.534 244.89 231.486 239.6 231.211 233.181C231.073 226.93 225.984 222.043 219.794 222.043C213.467 222.336 208.516 227.626 208.516 234.031ZM265.046 284.555C265.046 290.959 270.136 296.25 276.463 296.389C282.927 296.389 288.154 291.099 288.154 284.555C288.154 278.025 282.927 272.735 276.463 272.735H276.325C269.998 272.874 264.909 278.151 265.046 284.555ZM220.345 295.694C214.018 295.986 208.791 290.96 208.516 284.556C208.516 278.152 213.467 272.875 219.794 272.583C225.984 272.583 231.073 277.469 231.211 283.735C231.486 290.139 226.534 295.43 220.345 295.694ZM163.676 295.694C157.349 295.986 152.122 290.96 151.847 284.556C151.847 278.152 156.799 272.875 163.126 272.583C169.315 272.583 174.404 277.469 174.542 283.735C174.817 290.139 169.865 295.43 163.676 295.694ZM276.462 222.197C270.135 222.336 265.183 227.487 265.183 233.892V234.031C265.321 240.422 270.548 245.294 276.875 245.155C283.064 245.03 288.016 239.739 287.878 233.335C287.603 227.195 282.652 222.197 276.462 222.197Z" fill="url(#paint5_linear_610_36)"/>
<path d="M163.816 245.155L163.799 244.755L163.798 244.755L163.816 245.155ZM151.988 234.031H151.588V234.039L151.588 234.048L151.988 234.031ZM174.682 233.181L174.282 233.19L174.283 233.199L174.682 233.181ZM163.266 222.043V221.643H163.257L163.248 221.644L163.266 222.043ZM220.345 245.155L220.328 244.755L220.326 244.755L220.345 245.155ZM208.516 234.031H208.116V234.039L208.116 234.048L208.516 234.031ZM231.211 233.181L230.811 233.19L230.811 233.199L231.211 233.181ZM219.794 222.043V221.643H219.785L219.776 221.644L219.794 222.043ZM276.463 296.389L276.454 296.789H276.463V296.389ZM265.046 284.555H265.447L265.446 284.546L265.046 284.555ZM276.325 272.735V272.335L276.316 272.335L276.325 272.735ZM208.516 284.556H208.116V284.565L208.116 284.573L208.516 284.556ZM220.345 295.694L220.328 295.294L220.326 295.295L220.345 295.694ZM219.794 272.583V272.183H219.785L219.776 272.183L219.794 272.583ZM231.211 283.735L230.811 283.743L230.811 283.752L231.211 283.735ZM151.847 284.556H151.447V284.565L151.447 284.573L151.847 284.556ZM163.676 295.694L163.659 295.294L163.657 295.295L163.676 295.694ZM163.126 272.583V272.183H163.116L163.107 272.183L163.126 272.583ZM174.542 283.735L174.142 283.743L174.142 283.752L174.542 283.735ZM276.462 222.197V221.797L276.453 221.797L276.462 222.197ZM265.183 234.031H264.783L264.783 234.04L265.183 234.031ZM276.875 245.155L276.867 244.755L276.866 244.755L276.875 245.155ZM287.878 233.335L288.278 233.326L288.278 233.317L287.878 233.335ZM163.798 244.755C157.705 245.037 152.653 240.196 152.387 234.014L151.588 234.048C151.872 240.646 157.274 245.858 163.835 245.554L163.798 244.755ZM174.283 233.199C174.548 239.397 169.767 244.5 163.799 244.755L163.833 245.555C170.244 245.281 175.367 239.803 175.082 233.164L174.283 233.199ZM163.266 222.443C169.241 222.443 174.15 227.159 174.283 233.19L175.082 233.173C174.94 226.701 169.67 221.643 163.266 221.643V222.443ZM152.388 234.031C152.388 227.834 157.177 222.725 163.285 222.443L163.248 221.644C156.701 221.946 151.588 227.419 151.588 234.031H152.388ZM220.326 244.755C214.233 245.037 209.182 240.196 208.915 234.014L208.116 234.048C208.4 240.646 213.802 245.858 220.363 245.554L220.326 244.755ZM230.811 233.199C231.077 239.397 226.296 244.5 220.328 244.755L220.362 245.555C226.773 245.281 231.895 239.803 231.61 233.164L230.811 233.199ZM219.794 222.443C225.769 222.443 230.678 227.159 230.811 233.19L231.611 233.173C231.468 226.701 226.199 221.643 219.794 221.643V222.443ZM208.916 234.031C208.916 227.834 213.705 222.725 219.813 222.443L219.776 221.644C213.229 221.946 208.116 227.419 208.116 234.031H208.916ZM276.471 295.989C270.367 295.855 265.446 290.747 265.446 284.555H264.646C264.646 291.171 269.904 296.645 276.454 296.789L276.471 295.989ZM287.754 284.555C287.754 290.882 282.702 295.989 276.463 295.989V296.789C283.153 296.789 288.554 291.315 288.554 284.555H287.754ZM276.463 273.135C282.702 273.135 287.754 278.242 287.754 284.555H288.554C288.554 277.809 283.152 272.335 276.463 272.335V273.135ZM276.325 273.135H276.463V272.335H276.325V273.135ZM265.446 284.546C265.314 278.363 270.228 273.269 276.334 273.135L276.316 272.335C269.768 272.479 264.504 277.938 264.647 284.564L265.446 284.546ZM208.116 284.573C208.4 291.185 213.802 296.397 220.363 296.094L220.326 295.295C214.234 295.576 209.182 290.736 208.915 284.539L208.116 284.573ZM219.776 272.183C213.23 272.486 208.116 277.943 208.116 284.556H208.916C208.916 278.36 213.705 273.265 219.813 272.982L219.776 272.183ZM231.611 283.726C231.468 277.241 226.199 272.183 219.794 272.183V272.983C225.769 272.983 230.678 277.698 230.811 283.743L231.611 283.726ZM220.362 296.094C226.772 295.82 231.895 290.342 231.61 283.717L230.811 283.752C231.077 289.936 226.296 295.039 220.328 295.294L220.362 296.094ZM151.447 284.573C151.731 291.185 157.133 296.397 163.694 296.094L163.657 295.295C157.565 295.576 152.513 290.736 152.247 284.539L151.447 284.573ZM163.107 272.183C156.561 272.486 151.447 277.943 151.447 284.556H152.247C152.247 278.36 157.036 273.265 163.144 272.982L163.107 272.183ZM174.942 283.726C174.799 277.241 169.53 272.183 163.126 272.183V272.983C169.1 272.983 174.009 277.698 174.142 283.743L174.942 283.726ZM163.693 296.094C170.103 295.82 175.226 290.342 174.941 283.717L174.142 283.752C174.408 289.936 169.627 295.039 163.659 295.294L163.693 296.094ZM265.583 233.892C265.583 227.699 270.367 222.731 276.471 222.597L276.453 221.797C269.903 221.941 264.783 227.276 264.783 233.892H265.583ZM265.583 234.031V233.892H264.783V234.031H265.583ZM276.866 244.755C270.755 244.89 265.716 240.187 265.583 234.022L264.783 234.04C264.926 240.656 270.34 245.699 276.883 245.555L276.866 244.755ZM287.478 233.344C287.611 239.538 282.824 244.635 276.867 244.755L276.883 245.555C283.304 245.425 288.42 239.941 288.278 233.326L287.478 233.344ZM276.462 222.597C282.426 222.597 287.213 227.415 287.479 233.353L288.278 233.317C287.994 226.975 282.877 221.797 276.462 221.797V222.597Z" fill="url(#paint6_linear_610_36)" mask="url(#path-6-inside-3_610_36)"/>
<g opacity="0.5" filter="url(#filter1_b_610_36)">
<path d="M107.429 174.332C107.429 180.246 112.009 184.923 118.149 184.923L316.614 184.923C322.754 184.923 327.348 180.246 327.348 174.332C327.348 168.28 322.754 163.741 316.614 163.741L118.149 163.741C112.009 163.741 107.429 168.28 107.429 174.332Z" fill="url(#paint7_linear_610_36)" fill-opacity="0.5"/>
</g>
<defs>
<filter id="filter0_d_610_36" x="152.91" y="67.2476" width="144.069" height="83.9043" filterUnits="userSpaceOnUse" color-interpolation-filters="sRGB">
<feFlood flood-opacity="0" result="BackgroundImageFix"/>
<feColorMatrix in="SourceAlpha" type="matrix" values="0 0 0 0 0 0 0 0 0 0 0 0 0 0 0 0 0 0 127 0" result="hardAlpha"/>
<feOffset dx="5" dy="5"/>
<feGaussianBlur stdDeviation="5"/>
<feColorMatrix type="matrix" values="0 0 0 0 1 0 0 0 0 0.537255 0 0 0 0 0.160784 0 0 0 0.2 0"/>
<feBlend mode="normal" in2="BackgroundImageFix" result="effect1_dropShadow_610_36"/>
<feBlend mode="normal" in="SourceGraphic" in2="effect1_dropShadow_610_36" result="shape"/>
</filter>
<filter id="filter1_b_610_36" x="92.4286" y="148.741" width="249.92" height="51.1819" filterUnits="userSpaceOnUse" color-interpolation-filters="sRGB">
<feFlood flood-opacity="0" result="BackgroundImageFix"/>
<feGaussianBlur in="BackgroundImageFix" stdDeviation="7.5"/>
<feComposite in2="SourceAlpha" operator="in" result="effect1_backgroundBlur_610_36"/>
<feBlend mode="normal" in="SourceGraphic" in2="effect1_backgroundBlur_610_36" result="shape"/>
</filter>
<linearGradient id="paint0_linear_610_36" x1="215.236" y1="48.4701" x2="115.548" y2="286.117" gradientUnits="userSpaceOnUse">
<stop stop-color="#FFB37F"/>
<stop offset="1" stop-color="#FF7B0D"/>
</linearGradient>
<linearGradient id="paint1_linear_610_36" x1="95" y1="93" x2="345" y2="351" gradientUnits="userSpaceOnUse">
<stop offset="0.242708" stop-color="#FE7E14"/>
<stop offset="1" stop-color="#80665B"/>
</linearGradient>
<linearGradient id="paint2_linear_610_36" x1="134.535" y1="123.015" x2="299.835" y2="322.1" gradientUnits="userSpaceOnUse">
<stop stop-color="white" stop-opacity="0.25"/>
<stop offset="1" stop-color="white" stop-opacity="0"/>
</linearGradient>
<linearGradient id="paint3_linear_610_36" x1="274.499" y1="126.235" x2="278.225" y2="78.2366" gradientUnits="userSpaceOnUse">
<stop stop-color="white"/>
<stop offset="1" stop-color="white" stop-opacity="0.2"/>
</linearGradient>
<linearGradient id="paint4_linear_610_36" x1="271.09" y1="81.9103" x2="321.536" y2="100.832" gradientUnits="userSpaceOnUse">
<stop stop-color="white" stop-opacity="0.25"/>
<stop offset="1" stop-color="white" stop-opacity="0"/>
</linearGradient>
<linearGradient id="paint5_linear_610_36" x1="278.49" y1="235.469" x2="48.6671" y2="220.326" gradientUnits="userSpaceOnUse">
<stop stop-color="white"/>
<stop offset="1" stop-color="white" stop-opacity="0.2"/>
</linearGradient>
<linearGradient id="paint6_linear_610_36" x1="173.545" y1="230.705" x2="209.334" y2="311.972" gradientUnits="userSpaceOnUse">
<stop stop-color="white" stop-opacity="0.25"/>
<stop offset="1" stop-color="white" stop-opacity="0"/>
</linearGradient>
<linearGradient id="paint7_linear_610_36" x1="166.786" y1="174.033" x2="158.901" y2="149.336" gradientUnits="userSpaceOnUse">
<stop stop-color="white"/>
<stop offset="1" stop-color="white" stop-opacity="0.2"/>
</linearGradient>
</defs>
</svg>
