<svg width="349" height="343" viewBox="0 0 349 343" fill="none" xmlns="http://www.w3.org/2000/svg">
<path d="M158.11 7.73747L56.6772 34.4107C17.0165 44.8401 -2.19702 79.1808 8.90026 119.826L34.5118 213.631C45.5777 254.161 79.713 274.473 119.374 264.044L220.807 237.371C260.467 226.941 279.564 192.631 268.498 152.101L242.887 58.2959C231.789 17.6508 197.771 -2.69187 158.11 7.73747" fill="url(#paint0_linear_609_29)"/>
<path d="M269.566 69.614H149.902C126.389 69.614 106.69 77.7168 92.8697 91.8775C79.05 106.037 71.1445 126.216 71.1445 150.302V260.967C71.1445 284.986 79.0502 305.131 92.8699 319.274C106.691 333.417 126.389 341.52 149.902 341.52H269.566C293.079 341.52 312.744 333.417 326.53 319.273C340.315 305.13 348.186 284.985 348.186 260.967V150.302C348.186 126.216 340.315 106.038 326.53 91.8779C312.744 77.7168 293.079 69.614 269.566 69.614Z" fill="url(#paint1_linear_609_29)" stroke="url(#paint2_linear_609_29)" stroke-linecap="round" stroke-linejoin="round"/>
<g filter="url(#filter0_d_609_29)">
<mask id="path-3-inside-1_609_29" fill="white">
<path fill-rule="evenodd" clip-rule="evenodd" d="M253.681 255.814C255.351 256.776 257.173 257.237 258.981 257.237C262.501 257.237 265.937 255.462 267.883 252.279C268.874 250.647 269.344 248.853 269.343 247.082C269.341 243.62 267.537 240.246 264.295 238.337L215.159 209.58L215.159 146.991C215.159 141.384 210.522 136.833 204.808 136.833C199.094 136.833 194.456 141.384 194.456 146.991L194.456 215.35C194.456 215.355 194.456 215.359 194.456 215.363C194.459 218.936 196.377 222.251 199.494 224.091L253.681 255.814Z"/>
</mask>
<path fill-rule="evenodd" clip-rule="evenodd" d="M253.681 255.814C255.351 256.776 257.173 257.237 258.981 257.237C262.501 257.237 265.937 255.462 267.883 252.279C268.874 250.647 269.344 248.853 269.343 247.082C269.341 243.62 267.537 240.246 264.295 238.337L215.159 209.58L215.159 146.991C215.159 141.384 210.522 136.833 204.808 136.833C199.094 136.833 194.456 141.384 194.456 146.991L194.456 215.35C194.456 215.355 194.456 215.359 194.456 215.363C194.459 218.936 196.377 222.251 199.494 224.091L253.681 255.814Z" fill="url(#paint3_linear_609_29)"/>
<path d="M253.681 255.814L253.479 256.16L253.481 256.161L253.681 255.814ZM267.883 252.279L268.225 252.488L268.225 252.487L267.883 252.279ZM269.343 247.082L268.943 247.082L268.943 247.082L269.343 247.082ZM264.295 238.337L264.498 237.992L264.497 237.991L264.295 238.337ZM215.159 209.58L214.759 209.58L214.759 209.809L214.957 209.925L215.159 209.58ZM215.159 146.991L215.559 146.991V146.991H215.159ZM194.456 146.991L194.856 146.991V146.991H194.456ZM194.456 215.35L194.056 215.35V215.35H194.456ZM194.456 215.363L194.856 215.363L194.856 215.362L194.456 215.363ZM199.494 224.091L199.291 224.436L199.292 224.436L199.494 224.091ZM258.981 256.837C257.241 256.837 255.489 256.394 253.881 255.468L253.481 256.161C255.213 257.158 257.104 257.637 258.981 257.637V256.837ZM267.542 252.07C265.672 255.129 262.368 256.837 258.981 256.837V257.637C262.633 257.637 266.202 255.796 268.225 252.488L267.542 252.07ZM268.943 247.082C268.944 248.782 268.493 250.503 267.541 252.072L268.225 252.487C269.255 250.79 269.744 248.924 269.743 247.082L268.943 247.082ZM269.743 247.082C269.741 243.482 267.865 239.975 264.498 237.992L264.092 238.681C267.21 240.517 268.941 243.759 268.943 247.082L269.743 247.082ZM264.497 237.991L215.361 209.235L214.957 209.925L264.093 238.682L264.497 237.991ZM214.759 146.991L214.759 209.58L215.559 209.58L215.559 146.991L214.759 146.991ZM204.808 137.233C210.308 137.233 214.759 141.612 214.759 146.991H215.559C215.559 141.156 210.736 136.433 204.808 136.433V137.233ZM194.856 146.991C194.856 141.612 199.308 137.233 204.808 137.233V136.433C198.88 136.433 194.056 141.156 194.056 146.991H194.856ZM194.856 215.35L194.856 146.991L194.056 146.991L194.056 215.35L194.856 215.35ZM194.056 215.35C194.056 215.355 194.056 215.359 194.056 215.363L194.856 215.362C194.856 215.358 194.856 215.354 194.856 215.35H194.056ZM199.697 223.747C196.7 221.977 194.859 218.791 194.856 215.363L194.056 215.363C194.059 219.08 196.055 222.525 199.291 224.436L199.697 223.747ZM253.883 255.469L199.696 223.746L199.292 224.436L253.479 256.16L253.883 255.469Z" fill="url(#paint4_linear_609_29)" mask="url(#path-3-inside-1_609_29)"/>
</g>
<defs>
<filter id="filter0_d_609_29" x="189.456" y="131.833" width="94.8862" height="140.404" filterUnits="userSpaceOnUse" color-interpolation-filters="sRGB">
<feFlood flood-opacity="0" result="BackgroundImageFix"/>
<feColorMatrix in="SourceAlpha" type="matrix" values="0 0 0 0 0 0 0 0 0 0 0 0 0 0 0 0 0 0 127 0" result="hardAlpha"/>
<feOffset dx="5" dy="5"/>
<feGaussianBlur stdDeviation="5"/>
<feColorMatrix type="matrix" values="0 0 0 0 0.577356 0 0 0 0 0.359375 0 0 0 0 0.9375 0 0 0 0.5 0"/>
<feBlend mode="normal" in2="BackgroundImageFix" result="effect1_dropShadow_609_29"/>
<feBlend mode="normal" in="SourceGraphic" in2="effect1_dropShadow_609_29" result="shape"/>
</filter>
<linearGradient id="paint0_linear_609_29" x1="107.335" y1="21.0895" x2="167.87" y2="251.291" gradientUnits="userSpaceOnUse">
<stop stop-color="#BC94FF"/>
<stop offset="1" stop-color="#9F66FF"/>
</linearGradient>
<linearGradient id="paint1_linear_609_29" x1="72" y1="70" x2="348" y2="341" gradientUnits="userSpaceOnUse">
<stop offset="0.00772073" stop-color="#B283FE"/>
<stop offset="1" stop-color="#5E4D78"/>
</linearGradient>
<linearGradient id="paint2_linear_609_29" x1="115.586" y1="101.675" x2="287.683" y2="318.863" gradientUnits="userSpaceOnUse">
<stop stop-color="white" stop-opacity="0.25"/>
<stop offset="1" stop-color="white" stop-opacity="0"/>
</linearGradient>
<linearGradient id="paint3_linear_609_29" x1="264.033" y1="158.575" x2="180.563" y2="160.268" gradientUnits="userSpaceOnUse">
<stop stop-color="white"/>
<stop offset="1" stop-color="white" stop-opacity="0.2"/>
</linearGradient>
<linearGradient id="paint4_linear_609_29" x1="206.377" y1="150.86" x2="282.345" y2="209.378" gradientUnits="userSpaceOnUse">
<stop stop-color="white" stop-opacity="0.25"/>
<stop offset="1" stop-color="white" stop-opacity="0"/>
</linearGradient>
</defs>
</svg>
