<svg width="312" height="327" viewBox="0 0 312 327" fill="none" xmlns="http://www.w3.org/2000/svg">
<path d="M157.291 15.365L57.355 42.1428C21.1057 51.8557 5.6872 78.7359 15.4321 115.104L48.4371 238.281C58.3417 275.245 85.0068 290.338 121.256 280.625L221.192 253.847C258.026 243.978 272.976 217.734 263.071 180.77L230.066 57.5934C220.321 21.2249 194.125 5.49547 157.291 15.365Z" fill="url(#paint0_linear_613_122)"/>
<path d="M251.268 78.605H147.806C128.945 78.605 113.96 84.1287 103.69 94.4455C93.4203 104.762 87.9282 119.808 87.9282 138.73V266.251C87.9282 285.48 93.4193 300.559 103.691 310.83C113.962 321.101 128.948 326.5 147.806 326.5H251.268C270.427 326.5 285.411 321.102 295.606 310.829C305.799 300.555 311.134 285.476 311.134 266.251V138.73C311.134 119.812 305.798 104.765 295.606 94.4469C285.414 84.1277 270.43 78.605 251.268 78.605Z" fill="url(#paint1_linear_613_122)" stroke="url(#paint2_linear_613_122)" stroke-linecap="round" stroke-linejoin="round"/>
<g filter="url(#filter0_d_613_122)">
<mask id="path-3-inside-1_613_122" fill="white">
<path fill-rule="evenodd" clip-rule="evenodd" d="M151.139 136.513V136.636C145.818 136.636 141.51 140.957 141.51 146.265C141.51 151.574 145.818 155.894 151.139 155.894H188.037C193.358 155.894 197.679 151.574 197.679 146.129C197.679 140.834 193.358 136.513 188.037 136.513H151.139ZM247.922 211.695H151.139C145.818 211.695 141.51 207.374 141.51 202.066C141.51 196.758 145.818 192.424 151.139 192.424H247.922C253.23 192.424 257.551 196.758 257.551 202.066C257.551 207.374 253.23 211.695 247.922 211.695ZM247.923 268.109H151.14C147.436 268.603 143.856 266.751 141.881 263.665C139.906 260.455 139.906 256.382 141.881 253.296C143.856 250.086 147.436 248.358 151.14 248.728H247.923C252.848 249.222 256.564 253.419 256.564 258.48C256.564 263.406 252.848 267.615 247.923 268.109Z"/>
</mask>
<path fill-rule="evenodd" clip-rule="evenodd" d="M151.139 136.513V136.636C145.818 136.636 141.51 140.957 141.51 146.265C141.51 151.574 145.818 155.894 151.139 155.894H188.037C193.358 155.894 197.679 151.574 197.679 146.129C197.679 140.834 193.358 136.513 188.037 136.513H151.139ZM247.922 211.695H151.139C145.818 211.695 141.51 207.374 141.51 202.066C141.51 196.758 145.818 192.424 151.139 192.424H247.922C253.23 192.424 257.551 196.758 257.551 202.066C257.551 207.374 253.23 211.695 247.922 211.695ZM247.923 268.109H151.14C147.436 268.603 143.856 266.751 141.881 263.665C139.906 260.455 139.906 256.382 141.881 253.296C143.856 250.086 147.436 248.358 151.14 248.728H247.923C252.848 249.222 256.564 253.419 256.564 258.48C256.564 263.406 252.848 267.615 247.923 268.109Z" fill="url(#paint3_linear_613_122)"/>
<path d="M151.139 136.636V137.036H151.539V136.636H151.139ZM151.139 136.513V136.113H150.739V136.513H151.139ZM151.14 268.109V267.709H151.113L151.087 267.713L151.14 268.109ZM247.923 268.109V268.509H247.943L247.963 268.507L247.923 268.109ZM141.881 263.665L141.541 263.875L141.544 263.881L141.881 263.665ZM141.881 253.296L142.218 253.511L142.222 253.505L141.881 253.296ZM151.14 248.728L151.1 249.126L151.12 249.128H151.14V248.728ZM247.923 248.728L247.963 248.33L247.943 248.328H247.923V248.728ZM151.539 136.636V136.513H150.739V136.636H151.539ZM141.91 146.265C141.91 141.178 146.04 137.036 151.139 137.036V136.236C145.597 136.236 141.11 140.736 141.11 146.265H141.91ZM151.139 155.494C146.04 155.494 141.91 151.353 141.91 146.265H141.11C141.11 151.794 145.597 156.294 151.139 156.294V155.494ZM188.037 155.494H151.139V156.294H188.037V155.494ZM197.279 146.129C197.279 151.356 193.134 155.494 188.037 155.494V156.294C193.582 156.294 198.079 151.791 198.079 146.129H197.279ZM188.037 136.913C193.138 136.913 197.279 141.055 197.279 146.129H198.079C198.079 140.612 193.578 136.113 188.037 136.113V136.913ZM151.139 136.913H188.037V136.113H151.139V136.913ZM151.139 212.095H247.922V211.295H151.139V212.095ZM141.11 202.066C141.11 207.595 145.597 212.095 151.139 212.095V211.295C146.04 211.295 141.91 207.153 141.91 202.066H141.11ZM151.139 192.024C145.596 192.024 141.11 196.538 141.11 202.066H141.91C141.91 196.977 146.04 192.824 151.139 192.824V192.024ZM247.922 192.024H151.139V192.824H247.922V192.024ZM257.951 202.066C257.951 196.537 253.452 192.024 247.922 192.024V192.824C253.008 192.824 257.151 196.978 257.151 202.066H257.951ZM247.922 212.095C253.451 212.095 257.951 207.595 257.951 202.066H257.151C257.151 207.153 253.009 211.295 247.922 211.295V212.095ZM151.14 268.509H247.923V267.709H151.14V268.509ZM141.544 263.881C143.596 267.086 147.322 269.022 151.193 268.506L151.087 267.713C147.551 268.184 144.117 266.416 142.218 263.45L141.544 263.881ZM141.544 253.08C139.483 256.3 139.488 260.539 141.541 263.875L142.222 263.455C140.324 260.372 140.329 256.463 142.218 253.511L141.544 253.08ZM151.18 248.33C147.326 247.945 143.597 249.744 141.541 253.086L142.222 253.505C144.116 250.428 147.547 248.771 151.1 249.126L151.18 248.33ZM247.923 248.328H151.14V249.128H247.923V248.328ZM256.964 258.48C256.964 253.221 253.1 248.845 247.963 248.33L247.883 249.126C252.596 249.599 256.164 253.617 256.164 258.48H256.964ZM247.963 268.507C253.097 267.993 256.964 263.607 256.964 258.48H256.164C256.164 263.205 252.599 267.238 247.883 267.711L247.963 268.507Z" fill="url(#paint4_linear_613_122)" mask="url(#path-3-inside-1_613_122)"/>
</g>
<defs>
<filter id="filter0_d_613_122" x="135.4" y="131.513" width="137.151" height="151.676" filterUnits="userSpaceOnUse" color-interpolation-filters="sRGB">
<feFlood flood-opacity="0" result="BackgroundImageFix"/>
<feColorMatrix in="SourceAlpha" type="matrix" values="0 0 0 0 0 0 0 0 0 0 0 0 0 0 0 0 0 0 127 0" result="hardAlpha"/>
<feOffset dx="5" dy="5"/>
<feGaussianBlur stdDeviation="5"/>
<feColorMatrix type="matrix" values="0 0 0 0 0.577356 0 0 0 0 0.359375 0 0 0 0 0.9375 0 0 0 0.5 0"/>
<feBlend mode="normal" in2="BackgroundImageFix" result="effect1_dropShadow_613_122"/>
<feBlend mode="normal" in="SourceGraphic" in2="effect1_dropShadow_613_122" result="shape"/>
</filter>
<linearGradient id="paint0_linear_613_122" x1="107.317" y1="28.7555" x2="171.218" y2="267.238" gradientUnits="userSpaceOnUse">
<stop stop-color="#BC94FF"/>
<stop offset="1" stop-color="#9F66FF"/>
</linearGradient>
<linearGradient id="paint1_linear_613_122" x1="88" y1="79" x2="311" y2="326" gradientUnits="userSpaceOnUse">
<stop stop-color="#A269FE"/>
<stop offset="1" stop-color="#5B4C74"/>
</linearGradient>
<linearGradient id="paint2_linear_613_122" x1="123.8" y1="107.869" x2="283.965" y2="286.4" gradientUnits="userSpaceOnUse">
<stop stop-color="white" stop-opacity="0.25"/>
<stop offset="1" stop-color="white" stop-opacity="0"/>
</linearGradient>
<linearGradient id="paint3_linear_613_122" x1="249.245" y1="160.291" x2="118.721" y2="164.077" gradientUnits="userSpaceOnUse">
<stop stop-color="white"/>
<stop offset="1" stop-color="white" stop-opacity="0.2"/>
</linearGradient>
<linearGradient id="paint4_linear_613_122" x1="159.048" y1="151.853" x2="244.57" y2="246.09" gradientUnits="userSpaceOnUse">
<stop stop-color="white" stop-opacity="0.25"/>
<stop offset="1" stop-color="white" stop-opacity="0"/>
</linearGradient>
</defs>
</svg>
