<svg width="281" height="327" viewBox="0 0 281 327" fill="none" xmlns="http://www.w3.org/2000/svg">
<path d="M56.9162 108.384C48.5131 101.105 44.3115 97.4657 43.692 92.5188C43.0726 87.5719 46.2471 83.0089 52.5961 73.8829L91.5311 17.9176C97.8801 8.79159 101.055 4.22857 105.908 3.0893C110.762 1.95002 115.635 4.62403 125.382 9.97203L238.293 71.928C250.128 78.4219 256.045 81.6689 257.369 87.3085C258.693 92.9481 254.838 98.4888 247.129 109.57L192.632 187.903C184.923 198.985 181.068 204.526 175.32 205.245C169.572 205.965 164.47 201.546 154.266 192.708L56.9162 108.384Z" fill="url(#paint0_linear_613_100)"/>
<mask id="path-2-outside-1_613_100" maskUnits="userSpaceOnUse" x="0" y="74.1492" width="281" height="253" fill="black">
<rect fill="white" y="74.1492" width="281" height="253"/>
<path d="M269.271 221.15C257.829 221.15 248.52 211.925 248.52 200.588C248.52 189.238 257.829 180.013 269.271 180.013C272.044 180.013 274.706 178.922 276.657 176.989C278.622 175.042 279.723 172.405 279.723 169.657L279.709 132.345C279.709 100.806 253.802 75.1492 221.972 75.1492H58.7514C26.9212 75.1492 1.01394 100.806 1.01394 132.345L1 170.858C1 173.606 2.10096 176.243 4.06595 178.19C6.01702 180.124 8.67882 181.215 11.4521 181.215C23.2839 181.215 32.2031 189.541 32.2031 200.588C32.2031 211.925 22.8937 221.15 11.4521 221.15C5.68255 221.15 1 225.789 1 231.506V268.79C1 300.329 26.8934 326 58.7375 326H221.986C253.83 326 279.723 300.329 279.723 268.79V231.506C279.723 225.789 275.041 221.15 269.271 221.15"/>
</mask>
<path d="M269.271 221.15C257.829 221.15 248.52 211.925 248.52 200.588C248.52 189.238 257.829 180.013 269.271 180.013C272.044 180.013 274.706 178.922 276.657 176.989C278.622 175.042 279.723 172.405 279.723 169.657L279.709 132.345C279.709 100.806 253.802 75.1492 221.972 75.1492H58.7514C26.9212 75.1492 1.01394 100.806 1.01394 132.345L1 170.858C1 173.606 2.10096 176.243 4.06595 178.19C6.01702 180.124 8.67882 181.215 11.4521 181.215C23.2839 181.215 32.2031 189.541 32.2031 200.588C32.2031 211.925 22.8937 221.15 11.4521 221.15C5.68255 221.15 1 225.789 1 231.506V268.79C1 300.329 26.8934 326 58.7375 326H221.986C253.83 326 279.723 300.329 279.723 268.79V231.506C279.723 225.789 275.041 221.15 269.271 221.15" fill="url(#paint1_linear_613_100)"/>
<path d="M269.271 222.15C269.823 222.15 270.271 221.702 270.271 221.15C270.271 220.597 269.823 220.15 269.271 220.15V222.15ZM276.657 176.989L275.953 176.279L275.953 176.279L276.657 176.989ZM279.723 169.657L280.723 169.657L280.723 169.656L279.723 169.657ZM279.709 132.345L278.709 132.345L278.709 132.346L279.709 132.345ZM1.01394 132.345L2.01394 132.346V132.345H1.01394ZM1 170.858L0 170.858V170.858H1ZM4.06595 178.19L4.76981 177.48L4.76981 177.48L4.06595 178.19ZM269.271 220.15C268.719 220.15 268.271 220.597 268.271 221.15C268.271 221.702 268.719 222.15 269.271 222.15V220.15ZM269.271 220.15C258.373 220.15 249.52 211.364 249.52 200.588H247.52C247.52 212.486 257.286 222.15 269.271 222.15V220.15ZM249.52 200.588C249.52 189.798 258.373 181.013 269.271 181.013V179.013C257.285 179.013 247.52 188.677 247.52 200.588H249.52ZM269.271 181.013C272.305 181.013 275.221 179.82 277.361 177.699L275.953 176.279C274.191 178.025 271.783 179.013 269.271 179.013V181.013ZM277.361 177.699C279.515 175.566 280.723 172.673 280.723 169.657H278.723C278.723 172.136 277.73 174.519 275.953 176.279L277.361 177.699ZM280.723 169.656L280.709 132.345L278.709 132.346L278.723 169.657L280.723 169.656ZM280.709 132.345C280.709 100.245 254.345 74.1492 221.972 74.1492V76.1492C253.259 76.1492 278.709 101.367 278.709 132.345H280.709ZM221.972 74.1492H58.7514V76.1492H221.972V74.1492ZM58.7514 74.1492C26.378 74.1492 0.0139362 100.245 0.0139362 132.345H2.01394C2.01394 101.367 27.4645 76.1492 58.7514 76.1492V74.1492ZM0.0139362 132.345L6.54707e-08 170.858L2 170.858L2.01394 132.346L0.0139362 132.345ZM0 170.858C0 173.874 1.20849 176.767 3.3621 178.901L4.76981 177.48C2.99342 175.72 2 173.338 2 170.858H0ZM3.3621 178.901C5.50217 181.021 8.41766 182.215 11.4521 182.215V180.215C8.93999 180.215 6.53186 179.226 4.76981 177.48L3.3621 178.901ZM11.4521 182.215C22.7974 182.215 31.2031 190.157 31.2031 200.588H33.2031C33.2031 188.925 23.7704 180.215 11.4521 180.215V182.215ZM31.2031 200.588C31.2031 211.364 22.3501 220.15 11.4521 220.15V222.15C23.4373 222.15 33.2031 212.486 33.2031 200.588H31.2031ZM11.4521 220.15C5.13894 220.15 0 225.229 0 231.506H2C2 226.35 6.22616 222.15 11.4521 222.15V220.15ZM0 231.506V268.79H2V231.506H0ZM0 268.79C0 300.89 26.3496 327 58.7375 327V325C27.4371 325 2 299.769 2 268.79H0ZM58.7375 327H221.986V325H58.7375V327ZM221.986 327C254.373 327 280.723 300.89 280.723 268.79H278.723C278.723 299.769 253.286 325 221.986 325V327ZM280.723 268.79V231.506H278.723V268.79H280.723ZM280.723 231.506C280.723 225.229 275.584 220.15 269.271 220.15V222.15C274.497 222.15 278.723 226.35 278.723 231.506H280.723Z" fill="url(#paint2_linear_613_100)" mask="url(#path-2-outside-1_613_100)"/>
<g filter="url(#filter0_d_613_100)">
<path d="M188.169 194.841L171.738 210.84L175.626 233.458C176.295 237.374 174.721 241.234 171.501 243.548C168.31 245.889 164.143 246.182 160.631 244.314L140.354 233.653L120.035 244.328C118.53 245.123 116.886 245.541 115.255 245.541C113.123 245.541 111.018 244.872 109.207 243.562C106.001 241.234 104.427 237.374 105.096 233.458L108.97 210.84L92.5391 194.841C89.6961 192.082 88.7066 188.026 89.933 184.249C91.1733 180.487 94.3787 177.811 98.2947 177.253L120.955 173.951L131.114 153.367C132.884 149.827 136.424 147.625 140.354 147.625H140.382C144.326 147.639 147.866 149.841 149.608 153.381L159.767 173.951L182.469 177.267C186.343 177.811 189.549 180.487 190.775 184.249C192.015 188.026 191.026 192.082 188.169 194.841Z" fill="url(#paint3_linear_613_100)"/>
<path d="M188.1 194.769L188.099 194.769L171.668 210.768L171.631 210.805L171.64 210.857L175.528 233.475C175.528 233.475 175.528 233.475 175.528 233.475C176.19 237.353 174.631 241.176 171.443 243.467L171.442 243.467C168.282 245.786 164.156 246.076 160.678 244.226L160.678 244.226L140.401 233.565L140.354 233.54L140.308 233.565L119.989 244.24L119.988 244.24C118.497 245.027 116.869 245.441 115.255 245.441C113.144 245.441 111.06 244.778 109.265 243.481C106.091 241.176 104.532 237.353 105.194 233.475L109.068 210.857L109.077 210.805L109.04 210.768L92.6089 194.769L92.6087 194.769C89.7935 192.037 88.8135 188.021 90.028 184.281C91.2564 180.554 94.4303 177.905 98.3088 177.353L98.3091 177.352L120.969 174.05L121.021 174.042L121.045 173.995L131.204 153.412C132.957 149.905 136.462 147.725 140.354 147.725H140.382C144.288 147.739 147.793 149.92 149.518 153.425L149.518 153.425L159.677 173.995L159.701 174.042L159.753 174.05L182.455 177.366L182.455 177.366C186.292 177.905 189.465 180.554 190.68 184.28L190.68 184.281C191.908 188.021 190.929 192.036 188.1 194.769Z" stroke="url(#paint4_linear_613_100)" stroke-opacity="0.5" stroke-width="0.2"/>
</g>
<defs>
<filter id="filter0_d_613_100" x="68.416" y="126.625" width="153.885" height="149.915" filterUnits="userSpaceOnUse" color-interpolation-filters="sRGB">
<feFlood flood-opacity="0" result="BackgroundImageFix"/>
<feColorMatrix in="SourceAlpha" type="matrix" values="0 0 0 0 0 0 0 0 0 0 0 0 0 0 0 0 0 0 127 0" result="hardAlpha"/>
<feOffset dx="5" dy="5"/>
<feGaussianBlur stdDeviation="13"/>
<feColorMatrix type="matrix" values="0 0 0 0 0.15375 0 0 0 0 0.522433 0 0 0 0 0.9 0 0 0 0.5 0"/>
<feBlend mode="normal" in2="BackgroundImageFix" result="effect1_dropShadow_613_100"/>
<feBlend mode="normal" in="SourceGraphic" in2="effect1_dropShadow_613_100" result="shape"/>
</filter>
<linearGradient id="paint0_linear_613_100" x1="109.563" y1="-8.00194" x2="93.9007" y2="196.008" gradientUnits="userSpaceOnUse">
<stop stop-color="#39AFFD"/>
<stop offset="1" stop-color="#477FFF"/>
</linearGradient>
<linearGradient id="paint1_linear_613_100" x1="140.362" y1="75.1492" x2="140.362" y2="326" gradientUnits="userSpaceOnUse">
<stop stop-color="#3A82D3"/>
<stop offset="1" stop-color="#305273"/>
</linearGradient>
<linearGradient id="paint2_linear_613_100" x1="45.3682" y1="104.374" x2="248.906" y2="334.75" gradientUnits="userSpaceOnUse">
<stop stop-color="white" stop-opacity="0.25"/>
<stop offset="1" stop-color="white" stop-opacity="0"/>
</linearGradient>
<linearGradient id="paint3_linear_613_100" x1="184.077" y1="165.307" x2="70.5973" y2="169.157" gradientUnits="userSpaceOnUse">
<stop stop-color="white"/>
<stop offset="1" stop-color="white" stop-opacity="0.2"/>
</linearGradient>
<linearGradient id="paint4_linear_613_100" x1="100.391" y1="180.471" x2="186.905" y2="180.968" gradientUnits="userSpaceOnUse">
<stop stop-color="white"/>
<stop offset="1" stop-color="white" stop-opacity="0"/>
</linearGradient>
</defs>
</svg>
