<svg width="345" height="327" viewBox="0 0 345 327" fill="none" xmlns="http://www.w3.org/2000/svg">
<path d="M291.131 39.2383L198.089 14.3079C164.341 5.26508 139.397 19.7606 130.324 53.62L99.5961 168.298C90.3748 202.712 104.849 227.294 138.597 236.337L231.638 261.267C265.93 270.456 290.201 256.256 299.422 221.841L330.15 107.163C339.223 73.3038 325.423 48.4269 291.131 39.2383Z" fill="url(#paint0_linear_613_144)"/>
<mask id="path-2-outside-1_613_144" maskUnits="userSpaceOnUse" x="0" y="60.5298" width="267" height="267" fill="black">
<rect fill="white" y="60.5298" width="267" height="267"/>
<path d="M190.625 61.5298H75.9773C31.1496 61.5298 1 93.0017 1 139.813V247.849C1 294.528 31.1496 326 75.9773 326H190.625C235.453 326 265.47 294.528 265.47 247.849V139.813C265.47 93.0017 235.453 61.5298 190.625 61.5298"/>
</mask>
<path d="M190.625 61.5298H75.9773C31.1496 61.5298 1 93.0017 1 139.813V247.849C1 294.528 31.1496 326 75.9773 326H190.625C235.453 326 265.47 294.528 265.47 247.849V139.813C265.47 93.0017 235.453 61.5298 190.625 61.5298" fill="url(#paint1_linear_613_144)"/>
<path d="M190.625 62.5298C191.177 62.5298 191.625 62.0821 191.625 61.5298C191.625 60.9775 191.177 60.5298 190.625 60.5298V62.5298ZM190.625 60.5298C190.073 60.5298 189.625 60.9775 189.625 61.5298C189.625 62.0821 190.073 62.5298 190.625 62.5298V60.5298ZM190.625 60.5298H75.9773V62.5298H190.625V60.5298ZM75.9773 60.5298C53.3207 60.5298 34.3053 68.4885 20.9561 82.4255C7.61046 96.3586 0 116.191 0 139.813H2C2 116.624 9.46434 97.3145 22.4004 83.8089C35.3329 70.307 53.8062 62.5298 75.9773 62.5298V60.5298ZM0 139.813V247.849H2V139.813H0ZM0 247.849C0 271.406 7.61091 291.205 20.9565 305.121C34.3056 319.041 53.3207 327 75.9773 327V325C53.8062 325 35.3326 317.223 22.4 303.737C9.46389 290.248 2 270.971 2 247.849H0ZM75.9773 327H190.625V325H75.9773V327ZM190.625 327C213.282 327 232.264 319.041 245.581 305.12C258.893 291.204 266.47 271.405 266.47 247.849H264.47C264.47 270.972 257.039 290.249 244.135 303.738C231.236 317.223 212.796 325 190.625 325V327ZM266.47 247.849V139.813H264.47V247.849H266.47ZM266.47 139.813C266.47 116.192 258.894 96.36 245.581 82.4264C232.265 68.4887 213.282 60.5298 190.625 60.5298V62.5298C212.796 62.5298 231.236 70.3069 244.135 83.808C257.038 97.3131 264.47 116.623 264.47 139.813H266.47Z" fill="url(#paint2_linear_613_144)" mask="url(#path-2-outside-1_613_144)"/>
<g filter="url(#filter0_d_613_144)">
<mask id="path-4-inside-2_613_144" fill="white">
<path d="M117.539 236.714C114.577 236.714 111.614 235.59 109.353 233.329L77.9739 201.949C73.4514 197.427 73.4514 190.101 77.9739 185.592C82.4963 181.069 89.8089 181.056 94.3313 185.579L117.539 208.786L172.125 154.199C176.648 149.677 183.96 149.677 188.483 154.199C193.005 158.722 193.005 166.047 188.483 170.57L125.724 233.329C123.463 235.59 120.501 236.714 117.539 236.714"/>
</mask>
<path d="M117.539 236.714C114.577 236.714 111.614 235.59 109.353 233.329L77.9739 201.949C73.4514 197.427 73.4514 190.101 77.9739 185.592C82.4963 181.069 89.8089 181.056 94.3313 185.579L117.539 208.786L172.125 154.199C176.648 149.677 183.96 149.677 188.483 154.199C193.005 158.722 193.005 166.047 188.483 170.57L125.724 233.329C123.463 235.59 120.501 236.714 117.539 236.714" fill="url(#paint3_linear_613_144)"/>
<path d="M77.9739 185.592L78.1151 185.733L78.1153 185.733L77.9739 185.592ZM117.539 208.786L117.397 208.927L117.539 209.069L117.68 208.927L117.539 208.786ZM188.483 170.57L188.341 170.428L188.341 170.428L188.483 170.57ZM125.724 233.329L125.865 233.47L125.865 233.47L125.724 233.329ZM117.539 236.514C114.627 236.514 111.717 235.409 109.495 233.187L109.212 233.47C111.512 235.771 114.526 236.914 117.539 236.914V236.514ZM109.495 233.187L78.1153 201.808L77.8324 202.091L109.212 233.47L109.495 233.187ZM78.1153 201.808C73.6708 197.363 73.6711 190.164 78.1151 185.733L77.8326 185.45C73.2317 190.038 73.232 197.49 77.8324 202.091L78.1153 201.808ZM78.1153 185.733C82.5599 181.289 89.7459 181.276 94.1899 185.72L94.4728 185.437C89.8719 180.836 82.4327 180.85 77.8324 185.45L78.1153 185.733ZM94.1899 185.72L117.397 208.927L117.68 208.644L94.4728 185.437L94.1899 185.72ZM117.68 208.927L172.267 154.341L171.984 154.058L117.397 208.644L117.68 208.927ZM172.267 154.341C176.711 149.896 183.897 149.896 188.341 154.341L188.624 154.058C184.024 149.457 176.584 149.457 171.984 154.058L172.267 154.341ZM188.341 154.341C192.786 158.785 192.786 165.984 188.341 170.428L188.624 170.711C193.225 166.111 193.225 158.658 188.624 154.058L188.341 154.341ZM188.341 170.428L125.583 233.187L125.865 233.47L188.624 170.711L188.341 170.428ZM125.583 233.187C123.361 235.409 120.45 236.514 117.539 236.514V236.914C120.551 236.914 123.565 235.771 125.865 233.47L125.583 233.187Z" fill="url(#paint4_linear_613_144)" fill-opacity="0.5" mask="url(#path-4-inside-2_613_144)"/>
</g>
<defs>
<filter id="filter0_d_613_144" x="53.582" y="129.807" width="169.292" height="137.906" filterUnits="userSpaceOnUse" color-interpolation-filters="sRGB">
<feFlood flood-opacity="0" result="BackgroundImageFix"/>
<feColorMatrix in="SourceAlpha" type="matrix" values="0 0 0 0 0 0 0 0 0 0 0 0 0 0 0 0 0 0 127 0" result="hardAlpha"/>
<feOffset dx="5" dy="5"/>
<feGaussianBlur stdDeviation="13"/>
<feColorMatrix type="matrix" values="0 0 0 0 0.454902 0 0 0 0 0.870588 0 0 0 0 0.376471 0 0 0 0.5 0"/>
<feBlend mode="normal" in2="BackgroundImageFix" result="effect1_dropShadow_613_144"/>
<feBlend mode="normal" in="SourceGraphic" in2="effect1_dropShadow_613_144" result="shape"/>
</filter>
<linearGradient id="paint0_linear_613_144" x1="344.517" y1="53.5432" x2="141.613" y2="177.727" gradientUnits="userSpaceOnUse">
<stop stop-color="#9BF763"/>
<stop offset="1" stop-color="#26AB5B"/>
</linearGradient>
<linearGradient id="paint1_linear_613_144" x1="265" y1="62" x2="0.999993" y2="326" gradientUnits="userSpaceOnUse">
<stop stop-color="#54C94D"/>
<stop offset="1" stop-color="#42683C"/>
</linearGradient>
<linearGradient id="paint2_linear_613_144" x1="43.0993" y1="92.3409" x2="211.803" y2="301.285" gradientUnits="userSpaceOnUse">
<stop stop-color="white" stop-opacity="0.25"/>
<stop offset="1" stop-color="white" stop-opacity="0"/>
</linearGradient>
<linearGradient id="paint3_linear_613_144" x1="183.559" y1="166.32" x2="53.0256" y2="172.131" gradientUnits="userSpaceOnUse">
<stop offset="0.289583" stop-color="white"/>
<stop offset="1" stop-color="white" stop-opacity="0.2"/>
</linearGradient>
<linearGradient id="paint4_linear_613_144" x1="87.217" y1="179.625" x2="186.812" y2="180.376" gradientUnits="userSpaceOnUse">
<stop stop-color="white"/>
<stop offset="1" stop-color="white" stop-opacity="0"/>
</linearGradient>
</defs>
</svg>
